<?xml version="1.0" encoding="UTF-8"?>
<svg version="1.1" xmlns="http://www.w3.org/2000/svg" width="48" height="48">
<path d="M0 0 C1.125 5.75 1.125 5.75 0 8 C-2.0625 9.125 -2.0625 9.125 -4 10 C-3.67 10.99 -3.34 11.98 -3 13 C-2.01 13.33 -1.02 13.66 0 14 C0.625 16.8125 0.625 16.8125 1 20 C0.34 20.99 -0.32 21.98 -1 23 C-5.35626208 22.41218645 -8.43190583 20.80652583 -12.1875 18.5625 C-13.23292969 17.94503906 -14.27835938 17.32757812 -15.35546875 16.69140625 C-18 15 -18 15 -20 13 C-19.890625 10.5703125 -19.890625 10.5703125 -19 8 C-17.109375 6.3046875 -17.109375 6.3046875 -14.75 4.875 C-13.9353125 4.37613281 -13.120625 3.87726562 -12.28125 3.36328125 C-11.5284375 2.91339844 -10.775625 2.46351562 -10 2 C-9.0925 1.360625 -8.185 0.72125 -7.25 0.0625 C-4.42436 -1.27183 -2.93024922 -0.92093547 0 0 Z " fill="#4785F2" transform="translate(21,13)"/>
<path d="M0 0 C3.04179611 1.04708988 5.62652316 2.58310886 8.39453125 4.21875 C9.97621094 5.14494141 9.97621094 5.14494141 11.58984375 6.08984375 C14.26953125 7.78125 14.26953125 7.78125 16.26953125 9.78125 C16.16015625 12.2109375 16.16015625 12.2109375 15.26953125 14.78125 C13.37890625 16.4765625 13.37890625 16.4765625 11.01953125 17.90625 C9.7975 18.65455078 9.7975 18.65455078 8.55078125 19.41796875 C7.79796875 19.86785156 7.04515625 20.31773438 6.26953125 20.78125 C5.36203125 21.420625 4.45453125 22.06 3.51953125 22.71875 C0.69389125 24.05308 -0.80021953 23.70218547 -3.73046875 22.78125 C-4.85546875 17.03125 -4.85546875 17.03125 -3.73046875 14.78125 C-1.66796875 13.65625 -1.66796875 13.65625 0.26953125 12.78125 C-0.06046875 11.79125 -0.39046875 10.80125 -0.73046875 9.78125 C-1.72046875 9.45125 -2.71046875 9.12125 -3.73046875 8.78125 C-4.41796875 5.96875 -4.41796875 5.96875 -4.73046875 2.78125 C-3.35233818 0.53272117 -2.69553556 -0.3407449 0 0 Z " fill="#17A05B" transform="translate(30.73046875,12.21875)"/>
<path d="M0 0 C2.02915769 0.93942486 4.03875312 1.92598385 6 3 C2.18611711 6.23602185 -1.50358503 8.83208564 -6 11 C-8.9375 10.75 -8.9375 10.75 -11 10 C-12.125 4.25 -12.125 4.25 -11 2 C-7.02620324 -1.06550036 -4.79883057 -1.37109445 0 0 Z " fill="#F7BD0A" transform="translate(38,25)"/>
<path d="M0 0 C1.0209375 0.37125 1.0209375 0.37125 2.0625 0.75 C3.1875 6.5 3.1875 6.5 2.0625 8.75 C-0.76388328 10.93035281 -2.26781499 11.77849723 -5.875 11.625 C-9.15311131 10.68839677 -11.95172747 9.38506591 -14.9375 7.75 C-5.27451657 -0.44889503 -5.27451657 -0.44889503 0 0 Z " fill="#E74538" transform="translate(18.9375,12.25)"/>
</svg>
